<?xml version="1.0" encoding="UTF-8"?>
<svg id="Layer_1" xmlns="http://www.w3.org/2000/svg" version="1.1" viewBox="0 0 48 48">
  <!-- Generator: Adobe Illustrator 29.1.0, SVG Export Plug-In . SVG Version: 2.1.0 Build 142)  -->
  <defs>
    <style>
      .st0 {
        fill: #f0bc74;
      }
    </style>
  </defs>
  <path class="st0" d="M-661.3,422.4S-1020.7,242.7-1020.7-26.9v-359.4l359.4-89.9,359.4,89.9V-26.9c0,269.6-359.4,449.3-359.4,449.3Z"/>
  <path class="st0" d="M183.9,24.6S123.9-5.4,123.9-50.4v-60l60-15,60,15v60c0,45-60,75-60,75Z"/>
  <path class="st0" d="M-32.3-58s-6.5-3.3-6.5-8.1v-6.5l6.5-1.6,6.5,1.6v6.5c0,4.9-6.5,8.1-6.5,8.1Z"/>
  <path class="st0" d="M24-50s-12.8-6.4-12.8-16v-12.8l12.8-3.2,12.8,3.2v12.8c0,9.6-12.8,16-12.8,16Z"/>
  <path class="st0" d="M819.1,30s-76.8-38.4-76.8-96v-76.8l76.8-19.2,76.8,19.2v76.8c0,57.6-76.8,96-76.8,96Z"/>
  <path class="st0" d="M1302.4,190s-204.8-102.4-204.8-256v-204.8l204.8-51.2,204.8,51.2V-66c0,153.6-204.8,256-204.8,256Z"/>
  <path class="st0" d="M499.2,23.6s-71.7-35.9-71.7-89.6v-71.7l71.7-17.9,71.7,17.9v71.7c0,53.8-71.7,89.6-71.7,89.6Z"/>
  <path class="st0" d="M24,48S4.8,38.4,4.8,24V4.8L24,0l19.2,4.8v19.2c0,14.4-19.2,24-19.2,24Z"/>
</svg>